<svg id="Layer_1" data-name="Layer 1" xmlns="http://www.w3.org/2000/svg" viewBox="0 0 1000 1000"><path d="M953.84,477.68a56.86,56.86,0,0,0-11.68-9.86,155.07,155.07,0,0,0-27.06-13.53c-18.75-7.43-38.14-12.91-57.65-17.75s-39.21-8.9-59-12.45-39.64-6.71-59.55-9.46q-8.37-1.15-16.74-2.22c.89-1.23,1.79-2.46,2.67-3.7q9-12.54,17.68-25.31c11.55-17,22.7-34.38,33.28-52.11s20.61-35.83,29.66-54.55,17.2-38,22.82-58.63a159.37,159.37,0,0,0,3.46-15.83,105.39,105.39,0,0,0,1.5-16.65,61,61,0,0,0-2.37-17.71,35.43,35.43,0,0,0-27.81-25.6,60.35,60.35,0,0,0-17.76-.87,104.06,104.06,0,0,0-16.39,2.9,156.79,156.79,0,0,0-15.41,4.79c-20,7.34-38.4,17.19-56.22,27.77s-34.88,22.2-51.55,34.27-32.91,24.68-48.82,37.66q-9.61,7.88-19.07,15.93-2.57-23.17-5.8-46.29c-2.82-19.86-6-39.68-9.95-59.39s-8.39-39.34-14.17-58.69c-2.91-9.68-6.13-19.28-10-28.72s-8.23-18.75-14.26-27.42a50.94,50.94,0,0,0-11.11-11.92A31.61,31.61,0,0,0,508.93,30l-2-1a18.92,18.92,0,0,0-2.15-.78,20.53,20.53,0,0,0-9.26-.76A22.91,22.91,0,0,0,487,30.64a37.87,37.87,0,0,0-6.59,5.28,67.57,67.57,0,0,0-9.59,12.68A165.49,165.49,0,0,0,458,76.43c-3.49,9.51-6.44,19.16-9.08,28.86-5.27,19.43-9.36,39.08-12.88,58.81-6.07,34.49-10.38,69.22-13.65,104Q408.77,257.87,394.89,248q-25.06-18-51.14-34.43c-17.35-11-35.13-21.36-53.41-30.76s-37.11-17.88-56.92-23.62a117.87,117.87,0,0,0-30.51-5.09A53.66,53.66,0,0,0,187.4,156a30.5,30.5,0,0,0-21.67,21.43A54.57,54.57,0,0,0,163.65,193a118.75,118.75,0,0,0,4.72,30.72c5.5,20,13.8,39,22.89,57.48s19.25,36.48,30,54.07,22,34.89,33.74,51.84Q262.6,398,270.42,408.8c-4.34.48-8.67,1-13,1.47-40,4.88-79.92,11-119.42,20.26-19.74,4.66-39.4,10-58.67,17.56Q72.09,450.9,65,454.34a123.63,123.63,0,0,0-14,7.82,63.36,63.36,0,0,0-13.09,11.09,33.22,33.22,0,0,0-5.31,8.1,24,24,0,0,0,.08,21,33,33,0,0,0,5.37,8,62.69,62.69,0,0,0,13.15,10.89,123.31,123.31,0,0,0,14,7.64q7.13,3.33,14.36,6.06c19.31,7.27,39,12.39,58.74,16.8,39.53,8.69,79.46,14.27,119.44,18.59q17.65,1.86,35.32,3.34Q279.81,592.14,267.14,611,250,636.46,234.27,662.81c-10.5,17.55-20.39,35.47-29.36,53.85s-17.08,37.25-22.6,57c-2.72,9.88-4.75,20-4.93,30.38a53.16,53.16,0,0,0,1.88,15.43,28,28,0,0,0,22,20.63,53.45,53.45,0,0,0,15.59.92c10.37-.83,20.43-3.48,30.16-6.8,19.48-6.74,37.88-16,55.77-26s35.26-21,52.21-32.55,33.64-23.51,49.95-35.95q6.58-5,13.11-10.11,1.88,19.35,4.23,38.69Q426,798.2,431.41,828c3.67,19.85,8,39.64,13.62,59.29,2.88,9.81,6.12,19.57,10,29.26q2.91,7.26,6.58,14.42a103.2,103.2,0,0,0,8.65,14.14c3.46,4.58,7.46,9.22,13.49,12.92a28.77,28.77,0,0,0,10.55,4,26.72,26.72,0,0,0,11.92-.89,31.65,31.65,0,0,0,9.58-5,48.36,48.36,0,0,0,7-6.42,84.61,84.61,0,0,0,9.84-13.9,139.24,139.24,0,0,0,7.2-14.34c2.1-4.83,4-9.67,5.78-14.54,3.53-9.74,6.47-19.54,9.16-29.38,5.3-19.68,9.35-39.51,12.87-59.38,5.39-31.16,9.33-62.45,12.41-93.77,6.66,5,13.35,10,20.12,14.9,16.8,12.1,33.91,23.79,51.47,34.88s35.52,21.6,54.16,31.1,37.92,18,58.66,23.9a152.56,152.56,0,0,0,15.94,3.62,103.71,103.71,0,0,0,16.81,1.53A62.05,62.05,0,0,0,815.09,832a38.13,38.13,0,0,0,26.63-26.88,61.65,61.65,0,0,0,2.18-17.77,102.39,102.39,0,0,0-1.72-16.71,147.7,147.7,0,0,0-3.8-15.82c-6.09-20.58-15-39.64-24.64-58.1s-20.5-36.18-31.81-53.51S758.69,609,746.37,592.39q-9.43-12.64-19.18-25,5.68-.68,11.37-1.37,29.85-3.71,59.54-8.62c19.79-3.25,39.49-7.07,59-11.58s38.94-9.8,57.73-17c4.7-1.78,9.33-3.76,13.88-5.9A117,117,0,0,0,942,515.66a56.4,56.4,0,0,0,11.73-9.72c3.4-3.78,6-8.7,6.12-14.08S957.22,481.51,953.84,477.68ZM605.94,260c15.87-12.65,32-24.89,48.58-36.57s33.43-22.81,50.81-32.91,35.28-19.3,53.73-25.81a140.45,140.45,0,0,1,13.87-4.13,86.52,86.52,0,0,1,13.75-2.29,43.54,43.54,0,0,1,12.7.71,18.13,18.13,0,0,1,14.71,13.89,43.39,43.39,0,0,1,1.43,12.56,87,87,0,0,1-1.45,13.78,139.37,139.37,0,0,1-3.27,14c-5.37,18.73-13.54,37.08-22.52,55s-19.14,35.34-29.8,52.48-21.91,33.95-33.58,50.49c-9,12.89-18.31,25.59-27.79,38.17q-54.42-6.15-109.17-9-1.31-31.2-3.48-62.34-2-28.31-4.85-56.56Q592.65,270.63,605.94,260ZM646.8,473.19q-26.06-28.32-53.27-55.51,12.32.27,24.61.63c20,.58,39.91,1.34,59.85,2.45l10.06.57c-12,15.74-24.36,31.21-36.89,46.55C649.72,469.66,648.26,471.42,646.8,473.19Zm11.56,32q25.11,29.19,48.8,59.51c-29.56,2.36-59.17,4-88.8,5.09q-13.68.53-27.37.86,19.15-20.52,37.77-41.56,12.69-14.42,25-29.15C655.31,501.71,656.84,503.45,658.36,505.21ZM565.15,684c-15.8-12.82-31.29-26.06-46.63-39.45-.24-.21-.48-.43-.72-.63q28.35-26.6,55.37-54.56-2.24,48-6.58,95.8ZM425.67,647.42q-2.55-31.15-4.35-62.38,17.87,17.85,36.19,35.25,14.69,13.89,29.75,27.37l-.18.17c-14.43,14.3-29,28.44-43.95,42.24q-6.11,5.67-12.28,11.29Q428,674.44,425.67,647.42Zm0-369.36q31.11,25.26,60.87,52.12,4.95,4.44,9.86,8.93-29.64,28.89-58,59.06h-.35q-10.69.22-21.4.57c1.8-38.46,4.51-76.88,8.42-115.16Q425.39,280.82,425.69,278.06Zm146,60.85q1.77,30,2.73,59.95-17.85-17.28-36.13-34.11-12.93-11.85-26.11-23.4c.53-.51,1.06-1,1.6-1.52q26.76-25,54.55-48.77Q570.29,315,571.68,338.91Zm3.91,119.43q.38,49.16-1.15,98.3l-3,3.28q-5.22,5.69-10.46,11.36l-2.6,0q-30,.45-60,.19t-60.19-1.12q-4.65-4.53-9.26-9.07t-9.34-9.26q-2.64-57.15-3.15-114.47,5.4-5.8,10.85-11.56,3.72-4,7.48-7.88l3.77-.11q29.91-.87,59.84-1,38.26-.25,76.52.31Q575.43,437.84,575.59,458.34ZM416.34,422c0-1.1,0-2.2,0-3.3l3.08-.11,0,0C418.36,419.79,417.36,420.92,416.34,422ZM531.53,372q14.06,13.43,27.81,27.17-30.45-1.15-60.94-1.37-22-.11-44.06.17,25.17-25.68,51.25-50.39Q518.66,359.63,531.53,372Zm-118.28,53.5q-17.5,19.4-34.52,39.22-10.28,12-20.32,24.24-7.26-7.8-14.46-15.65c-13.76-15.07-27.37-30.28-40.58-45.84l-1.79-2.11q8.75-.72,17.49-1.37c19.87-1.49,39.78-2.65,59.69-3.64,11.63-.6,23.27-1.07,34.91-1.48C413.53,421,413.38,423.25,413.25,425.46ZM386,471q13-14.64,26.35-29c-1.44,28.69-2.22,57.41-2.54,86.15q-.06,7-.07,14-22.92-23.05-45.22-46.73Q375.16,483.15,386,471Zm19.68,98.15q-13.56-.6-27.12-1.36-34.85-1.95-69.59-5,18.1-23.1,37-45.57c1.86-2.23,3.74-4.43,5.62-6.65Q377.87,540.55,405.67,569.17Zm90,55.11c-7.56-6.83-15-13.75-22.52-20.67Q461,592.42,449.15,581q24.63.32,49.25.16,27.21-.25,54.41-1.07-24.25,26-49.26,51.28ZM612,514.44q-10.91,12.64-22,25.08.54-40.69-.21-81.37-.27-14.44-.71-28.9,25.41,26.34,49.8,53.63Q625.53,498.78,612,514.44ZM441.89,165.18c3.79-19.54,8.15-39,13.64-58,2.75-9.53,5.8-19,9.33-28.14a158.42,158.42,0,0,1,12.61-26.34,60.38,60.38,0,0,1,8.59-11.05,29.59,29.59,0,0,1,5.13-4,14.56,14.56,0,0,1,5.49-2c3.67-.48,7.43.8,10.82,3.49a42.45,42.45,0,0,1,9,10.09c5.28,7.82,9.34,16.76,12.9,25.85s6.55,18.53,9.24,28c5.41,19,9.57,38.42,13.18,57.94s6.53,39.21,9.07,58.94q3.45,27,5.92,54.24-31.64,27.42-61.73,56.47c-.82.78-1.63,1.58-2.44,2.37q-5.31-4.59-10.64-9.14-32.1-27.26-65.61-52.75C430.27,235.64,435.16,200.22,441.89,165.18ZM264.57,380.05c-25.09-32.2-48.74-65.67-68.46-101.42-9.75-17.9-18.57-36.43-24.48-55.89A140.23,140.23,0,0,1,168,208a89.88,89.88,0,0,1-1.64-15,52.12,52.12,0,0,1,1.74-14.85A27.93,27.93,0,0,1,188,158a51.76,51.76,0,0,1,14.9-1.93A89.73,89.73,0,0,1,218,157.47a141.91,141.91,0,0,1,14.88,3.46c19.62,5.67,38.34,14.25,56.44,23.74,36.17,19.22,70.11,42.39,102.79,67q15,11.39,29.64,23.22-.37,4.14-.74,8.28c-3.23,38.48-5.26,77-6.37,115.6q-18.45.6-36.9,1.49c-20.09,1-40.17,2.35-60.24,3.95q-15.61,1.29-31.21,2.87Q275.27,393.73,264.57,380.05ZM259.19,557.6c-39.6-4.71-79.1-10.68-117.74-19.62-19.28-4.51-38.42-9.75-56.55-16.81-4.53-1.75-9-3.69-13.25-5.76a108.82,108.82,0,0,1-12.27-6.82,48.4,48.4,0,0,1-9.86-8.27,17.76,17.76,0,0,1-2.94-4.42,8.58,8.58,0,0,1,.08-8,17.88,17.88,0,0,1,3-4.34,48.49,48.49,0,0,1,9.92-8.08,109.31,109.31,0,0,1,12.31-6.63c4.31-2,8.74-3.88,13.28-5.57,18.16-6.81,37.32-11.79,56.61-16.06s38.89-7.63,58.54-10.56,39.42-5.33,59.22-7.39c8-.86,16.1-1.63,24.16-2.37q29.78,39.75,62.34,77.28-3.18,4-6.35,7.91-19.56,24.66-38.2,50Q280.31,560.1,259.19,557.6ZM397.66,730.68c-30.92,26.36-63.09,51.45-97.61,72.92-17.29,10.62-35.2,20.41-54.17,27.52a144.73,144.73,0,0,1-14.43,4.59,90.75,90.75,0,0,1-14.83,2.71,50.7,50.7,0,0,1-14.87-.64,25.54,25.54,0,0,1-20.54-18.87,51.23,51.23,0,0,1-1.92-14.83A93.31,93.31,0,0,1,180.72,789a148.51,148.51,0,0,1,3.33-14.84c5.46-19.59,13.66-38.35,22.73-56.57,18.37-36.4,40.53-70.76,64.09-104q14.24-20,29.18-39.35Q339,577.4,378,579q16,.69,32,1.15c0,2.69.07,5.38.12,8.07.34,20,1.09,40,2,60.07s2.23,40,4,60c.16,1.94.34,3.88.51,5.82C410.34,719.72,404,725.25,397.66,730.68Zm151.27,84.08c-3.68,19.42-7.92,38.72-13.18,57.57-2.63,9.41-5.49,18.74-8.83,27.77a172.18,172.18,0,0,1-11.6,25.69A65.31,65.31,0,0,1,508,936.34c-2.63,2.91-5.52,5.1-7.62,5.68a6.65,6.65,0,0,1-2.87.25,9.14,9.14,0,0,1-3.34-1.34c-2.55-1.5-5.39-4.42-7.92-7.77a83,83,0,0,1-7.07-11.34c-2.15-4.08-4.16-8.35-6-12.76a289,289,0,0,1-9.67-27.31c-5.73-18.65-10.29-37.87-14.24-57.23S442.07,785.58,439.1,766c-2.41-16-4.5-32-6.38-48q34.93-28,68.07-58.25l2.55,2.26q11.62,10.21,23.55,20.12t24,19.65q6.48,5.2,13,10.3C560.15,746.5,555.37,780.84,548.93,814.76ZM734.5,601.11c12,16.5,23.51,33.29,34.42,50.44s21.22,34.65,30.42,52.61,17.4,36.41,22.72,55.27c2.64,9.39,4.45,19,4.49,28a44,44,0,0,1-1.64,12.65A20.35,20.35,0,0,1,810,814.76a44.52,44.52,0,0,1-12.59,1.43c-9-.17-18.46-2.1-27.77-4.85-18.7-5.56-37-14.08-54.71-23.46s-35-20-51.95-31.15-33.49-22.91-49.75-35.09Q597.67,710.08,582.52,698c3.35-39.74,5.45-79.53,6.56-119.34q14.82-.72,29.64-1.62,46-2.87,91.92-7.79Q722.81,585,734.5,601.11Zm217.84-96.38a55,55,0,0,1-11.3,9.44c-8.34,5.38-17.49,9.48-26.77,13.12-18.65,7.17-38.06,12.23-57.55,16.65-39.09,8.62-78.82,14-118.61,18q-7.08.69-14.15,1.33-27-34.11-55.89-66.57-3-3.36-6-6.7c2.17-2.63,4.35-5.25,6.52-7.89q9.78-11.91,19.24-24.08t18.78-24.45q3.95-5.25,7.82-10.55c7.78.56,15.55,1.15,23.32,1.82,39.78,3.46,79.51,8.27,118.64,16.3,19.53,4.09,38.94,9,57.63,15.87,4.67,1.72,9.27,3.64,13.78,5.71a111,111,0,0,1,13.08,7,54.54,54.54,0,0,1,11.34,9.29c3.25,3.58,5.62,8,5.7,12.78S955.57,501.11,952.34,504.73Z"/></svg>