<svg id="Layer_1" data-name="Layer 1" xmlns="http://www.w3.org/2000/svg" viewBox="0 0 1000 1000"><path d="M489.18,51.43c-119.43,0-216.24,199.27-216.24,445.09s96.81,445.09,216.24,445.09S705.43,742.34,705.43,496.52,608.61,51.43,489.18,51.43ZM633,501.86a7.88,7.88,0,0,1-3.47-4.43l-135,.79,96.82,95.68a7.94,7.94,0,1,1-3.79,3.6l-96.7-95.56.78,132.28a8,8,0,1,1-5.23.06L485.6,502,392,596.64a7.94,7.94,0,1,1-3.84-3.55l93.69-94.8L349,499.08a8.29,8.29,0,0,1-.84,2.12,8,8,0,1,1,.39-7.35l133.35-.78-95.69-94.56a7.89,7.89,0,1,1,4.24-3.41,1.7,1.7,0,0,1-.1.14l95.22,94.11-.77-130.53a7.63,7.63,0,0,1-1.45-.68,8,8,0,1,1,6.68.63l.77,130.55,94.14-95.26a7.91,7.91,0,1,1,3.93,3.46L494.47,493l135.22-.79a8.25,8.25,0,0,1,.56-1.21A7.92,7.92,0,1,1,633,501.86Z"/></svg>