<svg id="Layer_1" data-name="Layer 1" xmlns="http://www.w3.org/2000/svg" viewBox="0 0 1000 1000"><path d="M982.62,854.7a35.11,35.11,0,0,0-4.41-9.05,87.26,87.26,0,0,0-12-13.85c-4.28-4.15-8.73-8-13.25-11.72-9-7.42-18.35-14.36-27.71-21.2s-18.8-13.51-28.21-20.22c-18.77-13.46-37.51-26.93-55.68-41.13a603.09,603.09,0,0,1-52.2-45.3c-8.17-8.11-16.07-16.51-23.41-25.37A242.28,242.28,0,0,1,745.55,639a165.65,165.65,0,0,1-15-30.87,120.07,120.07,0,0,1-7-33.45,116.32,116.32,0,0,1,3.44-33.9,151.12,151.12,0,0,1,12.16-31.92,220.56,220.56,0,0,1,18-29.17A315.62,315.62,0,0,1,778.75,453c15.33-17,32.12-32.74,49.52-47.74s35.49-29.23,53.67-43.49c9.1-7.13,18.23-14.25,27.3-21.59,4.54-3.67,9.06-7.39,13.55-11.25s8.93-7.83,13.27-12.13a97.87,97.87,0,0,0,12.59-14.7,45.9,45.9,0,0,0,2.82-4.85c.45-.85.86-1.88,1.27-2.83a30.29,30.29,0,0,0,1-3.29,22.11,22.11,0,0,0,.59-8.2A19.92,19.92,0,0,0,951,274.1a23.28,23.28,0,0,0-5.79-5.78,33,33,0,0,0-5.71-3.2,56.22,56.22,0,0,0-10.36-3.33,125.57,125.57,0,0,0-18.92-2.6,345.29,345.29,0,0,0-35.91-.36c-11.78.47-23.57,1.1-35.3,2.24s-23.43,2.49-35.09,4.2-23.24,3.78-34.8,6A760.62,760.62,0,0,0,634,311.71c-1.91.77-3.82,1.56-5.73,2.35-.78-1.73-1.59-3.46-2.45-5.15a135.79,135.79,0,0,0-8-13.4c-.7-1.1-1.46-2.15-2.22-3.21s-1.5-2.12-2.28-3.16c-1.6-2-3.13-4.14-4.82-6.11L606,280l-2.58-2.91c-1.7-2-3.52-3.82-5.29-5.72-14.42-14.93-30.77-27.83-47.87-39.48a506.08,506.08,0,0,0-53.52-31.32c-18.41-9.41-37.26-17.92-56.41-25.68A958.85,958.85,0,0,0,322.7,136.17a1051.42,1051.42,0,0,0-121.58-24.28q-30.75-4.24-61.78-6.42c-10.34-.72-20.7-1.28-31.17-1.45-5.24-.08-10.51-.06-15.84.17A108.08,108.08,0,0,0,75.89,106a34.52,34.52,0,0,0-9.23,3.16,15.75,15.75,0,0,0-5.31,4.57c-.2.29-.41.59-.6.9s-.36.68-.53,1a10.24,10.24,0,0,0-.78,2.22,11.51,11.51,0,0,0-.34,2.31,15.32,15.32,0,0,0,.08,2.16,16.75,16.75,0,0,0,2.23,6.31,28,28,0,0,0,3,4.17,58.27,58.27,0,0,0,6.19,6.26,157.57,157.57,0,0,0,12.75,10c4.3,3.08,8.64,6,13,8.86,17.4,11.39,35,22,52.3,33s34.45,22.05,51,33.89,32.4,24.38,46.64,38.27a191.31,191.31,0,0,1,19.53,22c5.75,7.75,10.68,16,13.81,24.5a60.93,60.93,0,0,1,3.27,12.92,48.37,48.37,0,0,1,0,12.89c-1.12,8.53-4.69,16.92-9.62,24.76a125.66,125.66,0,0,1-18.19,22,232.72,232.72,0,0,1-22.44,19.22c-15.89,12-33.06,22.72-50.64,32.83S146.2,453.75,128,463.09s-36.7,18.48-55.11,28.61c-4.59,2.57-9.18,5.2-13.78,8a165,165,0,0,0-13.8,9.37,74.31,74.31,0,0,0-7,6,35.55,35.55,0,0,0-7,9.32A21.83,21.83,0,0,0,29,532.93a18.9,18.9,0,0,0,.46,5.36,19.86,19.86,0,0,0,1.89,5,22.23,22.23,0,0,0,5.42,6.44c.45.37.91.74,1.36,1.08l1.31.89.66.44.62.37,1.25.72a54,54,0,0,0,9.2,3.86c2.9.94,5.72,1.71,8.49,2.34,5.53,1.3,10.91,2.19,16.25,3,10.66,1.5,21.15,2.46,31.61,3.13a829.75,829.75,0,0,0,125.06-1.77c10.37-1,20.73-2,31.06-3.27,5.17-.59,10.33-1.32,15.49-2s10.3-1.43,15.44-2.27q30.84-4.79,61.32-11.57,9.42-2.13,18.79-4.45c-.21.7-.43,1.39-.63,2.09a175.67,175.67,0,0,0-6.38,36.55A166,166,0,0,0,369.37,616a172.83,172.83,0,0,0,9.7,35.66,206.71,206.71,0,0,0,16.25,32.75c12.62,20.76,28.3,39.19,45.46,55.7a406.33,406.33,0,0,0,55.53,44.27,551.68,551.68,0,0,0,61.07,35.28A704.42,704.42,0,0,0,688.8,868.44a733.63,733.63,0,0,0,138,22.91,604.07,604.07,0,0,0,70,.63c11.67-.62,23.32-1.51,35-3.09,5.84-.79,11.69-1.73,17.55-3A95.93,95.93,0,0,0,967,880.39a39.41,39.41,0,0,0,8.61-5,24.13,24.13,0,0,0,3.94-3.84,19.3,19.3,0,0,0,3-5.22,18.12,18.12,0,0,0,1-6A21.87,21.87,0,0,0,982.62,854.7ZM933,286.17a.87.87,0,0,1,0-.31C933,285.63,933,285.78,933,286.17ZM633.92,353.65c-.12,2.51-.53,5-.86,7.48-.13,1.24-.47,2.46-.7,3.68s-.46,2.46-.84,3.65a91.85,91.85,0,0,1-12.17,27.16,138.13,138.13,0,0,1-19,23.09,206.39,206.39,0,0,1-23,19.39A293,293,0,0,1,552,454.63q-13.06,7.65-26.75,14.26t-27.73,12.42c-9.36,3.9-18.87,7.44-28.42,10.87q-26.82,9.49-54.34,16.88c3.62-6.13,7.56-12.11,11.75-17.92a311.71,311.71,0,0,1,44.81-49,462.14,462.14,0,0,1,53.45-40.8q14.09-9.3,28.74-17.79c9.74-5.69,19.72-11,29.76-16.18,5-2.61,10.1-5.08,15.18-7.57s10.21-4.87,15.38-7.18q9.95-4.55,20-8.76A80.12,80.12,0,0,1,633.92,353.65ZM53.35,535.3l.07-.13C53.37,535.31,53.34,535.35,53.35,535.3Zm298.12-11.58c-10,1.91-20,3.72-30,5.36s-20.09,3.13-30.17,4.41q-30.22,4-60.64,6.13a914.46,914.46,0,0,1-121.52.73c-10.07-.67-20.09-1.47-29.8-2.78-4.84-.66-9.63-1.44-14.12-2.45-2.25-.5-4.39-1.08-6.39-1.71-1.09-.34-2.13-.71-3.06-1.09a51,51,0,0,1,4.54-4,140.39,140.39,0,0,1,11.6-8.11c4.12-2.63,8.42-5.18,12.76-7.69,17.43-10.07,35.69-19.57,53.83-29.36s36.36-19.76,54.24-30.48,35.48-22.18,52.19-35.27A250.46,250.46,0,0,0,269,396.14a144.81,144.81,0,0,0,20.62-25.8A93,93,0,0,0,297.22,355a81.76,81.76,0,0,0,2.68-8.38,73.28,73.28,0,0,0,1.64-8.77,67.22,67.22,0,0,0-.2-17.87,79,79,0,0,0-4.48-16.88,117.79,117.79,0,0,0-16.69-28.89,208.91,208.91,0,0,0-21.69-23.82C243.06,235.71,226.37,223,209.31,211s-34.62-23-52.24-33.76-35.4-21.15-52.59-32c-4.29-2.73-8.53-5.48-12.64-8.33s-8.11-5.77-11.69-8.82a44.49,44.49,0,0,1-4.74-4.61,15.31,15.31,0,0,1-1.56-2.07v0a22.27,22.27,0,0,1,5-1.67A94,94,0,0,1,93.05,118c4.94-.3,10-.4,15-.4,10.1,0,20.29.38,30.48.92q30.57,1.67,61,5.35a1040.47,1040.47,0,0,1,120.74,21.77,951,951,0,0,1,117.31,36.2c19.12,7.34,37.95,15.42,56.34,24.38a502.79,502.79,0,0,1,53.5,30c17.13,11.12,33.52,23.49,48,37.86,1.77,1.82,3.6,3.6,5.31,5.49l2.59,2.81,2.51,2.88c1.7,1.9,3.23,3.93,4.85,5.89.79,1,1.53,2,2.3,3.05s1.54,2,2.24,3.09a134.89,134.89,0,0,1,8.07,12.93c.86,1.6,1.67,3.23,2.46,4.87-40.76,17-80.09,37.78-116.79,62.88a488.9,488.9,0,0,0-55.72,44.48,339.29,339.29,0,0,0-47.39,54.16A241.61,241.61,0,0,0,383.16,517Q367.38,520.63,351.47,523.72ZM973,862.77a9.8,9.8,0,0,1-1.41,2.24,15.08,15.08,0,0,1-2.34,2.09,29.37,29.37,0,0,1-6.45,3.46,85.85,85.85,0,0,1-15.63,4.32c-5.46,1-11.06,1.77-16.68,2.37s-11.3,1-17,1.34c-2.85.14-5.7.3-8.55.38s-5.71.24-8.56.3a623.79,623.79,0,0,1-68.49-2.13,717.21,717.21,0,0,1-134.71-24.71A686.12,686.12,0,0,1,565.93,802.7a531.07,531.07,0,0,1-58.42-34.83,386.36,386.36,0,0,1-52.18-42.76c-15.9-15.73-30.13-33-41.28-52s-19.15-39.43-22.15-60.66a146.26,146.26,0,0,1,5-63.5,168.57,168.57,0,0,1,5.92-16.28q6.71-1.9,13.39-3.94c19.92-6,39.62-12.84,59-20.62a526.9,526.9,0,0,0,56.67-26.55,334,334,0,0,0,52.27-34.8A214.69,214.69,0,0,0,607,425a139.13,139.13,0,0,0,18.52-25.73,97.31,97.31,0,0,0,10.87-29.77c.29-1.29.38-2.63.57-3.93s.39-2.62.43-3.94c.14-2.65.36-5.27.27-7.91a78.22,78.22,0,0,0-1-11q4.2-1.76,8.43-3.45a815.39,815.39,0,0,1,129.86-40q16.6-3.65,33.36-6.57c11.17-1.9,22.37-3.64,33.6-5.06s22.5-2.57,33.78-3.46,22.52-1.47,33.38-1.24c2.71.06,5.38.19,8,.39s5.13.49,7.5.88a35,35,0,0,1,6.24,1.55,12.51,12.51,0,0,1,1.92.85l.19.11c0,.15-.08.31-.11.47-.15.37-.22.72-.43,1.16A23.55,23.55,0,0,1,931,291a78.31,78.31,0,0,1-9.27,12.15c-7.29,8.12-15.57,16-24,23.76s-17,15.45-25.63,23.17c-17.25,15.41-34.5,31-51.16,47.22a623.53,623.53,0,0,0-47.58,51.12c-14.71,18.05-28.19,37.32-38.19,58.48a160.83,160.83,0,0,0-11.61,33,119.28,119.28,0,0,0-2.91,34.88,122.93,122.93,0,0,0,7.43,34.12,171.64,171.64,0,0,0,15.4,31.27c12.24,19.78,27.48,37.47,43.72,54a676.51,676.51,0,0,0,51.65,46.47c17.87,14.72,36.23,28.83,54.63,42.83,9.18,7,18.36,14,27.43,21.13s18,14.3,26.62,21.83c4.27,3.78,8.44,7.64,12.33,11.68a78.52,78.52,0,0,1,10.25,12.67,25.41,25.41,0,0,1,3,6.56,11.71,11.71,0,0,1,.37,2.94A8.22,8.22,0,0,1,973,862.77Z"/></svg>