<svg id="Layer_1" data-name="Layer 1" xmlns="http://www.w3.org/2000/svg" viewBox="0 0 1000 1000"><path d="M946.12,473.42a23.19,23.19,0,0,0-31.79,8.05,22.83,22.83,0,0,0-1.64,3.52L517,487.32,793.1,207.93a23.23,23.23,0,1,0-11.5-10.13L506.09,476.57,503.84,94.51a22.94,22.94,0,0,0,12.23-9.89,23.15,23.15,0,1,0-27.52,10l2.25,382L212.13,201.25c.09-.14.22-.26.3-.41a23.43,23.43,0,1,0-12.4,10l280,276.74L89.8,489.83a24.12,24.12,0,1,0,1.31,15.29l389-2.29L206,780.25a23.15,23.15,0,1,0,11.22,10.41L491,513.59l2.27,387.23a22.93,22.93,0,0,0-12.14,9.86,23.22,23.22,0,1,0,27.44-10.06L506.31,513.5l283,279.68a23.09,23.09,0,1,0,11.09-10.55l-283.33-280,395.16-2.33a23.15,23.15,0,1,0,33.9-26.87Z"/></svg>