<svg id="Layer_1" data-name="Layer 1" xmlns="http://www.w3.org/2000/svg" viewBox="0 0 1000 1000"><path d="M804,33.14q-81.19-.51-162.41-.2t-162.4,1.68c-54.14.84-108.28,1.94-162.41,2.92l-40.6.76-20.3.38-10.16.17-1.26,0c-.44,0-.85,0-1.2.05l-2.18.16-2.19.15c-.72.09-1.43.24-2.15.36A47.85,47.85,0,0,0,207.24,56.4a48.31,48.31,0,0,0-8.43,14.84A49.33,49.33,0,0,0,196,88l0-.69c6.09,67.91,11.7,135.85,17.44,203.79l17.16,203.81,16.92,203.83,16.83,203.84,0,.25,0,1a42.54,42.54,0,0,0,2.48,13.37,38.54,38.54,0,0,0,6.7,11.77,40.45,40.45,0,0,0,22.72,13.73,9.42,9.42,0,0,0,1.66.27l1.67.24a22.15,22.15,0,0,0,3.36.24l1.69.08H307l4.82,0,19.27-.16,38.54-.38,154.18-1.78c51.4-.58,102.79-1.22,154.18-1.6l38.55-.26,19.27-.1,4.82,0H743l1.5-.12a17.49,17.49,0,0,0,3-.26l1.47-.23a7.84,7.84,0,0,0,1.46-.27,35.76,35.76,0,0,0,19.83-12.41A33.46,33.46,0,0,0,776,915.45a37.32,37.32,0,0,0,2-11.67l0-1.07,0-.56q7.77-102,16.71-203.84t20.08-203.59L826,393,837.28,291.3q11.1-101.71,20.5-203.56V88A53.89,53.89,0,0,0,842.44,49.5a54.26,54.26,0,0,0-17.57-12A55.07,55.07,0,0,0,804,33.14ZM804,29a59.56,59.56,0,0,1,42,17,60,60,0,0,1,18,42v.23q-6,102.11-10.07,204.34l-4,102.25L845.76,497q-4.35,102.22-10.49,204.31Q829,803.43,821.4,905.4l.06-1.62a78.46,78.46,0,0,1-61.84,76.69,33,33,0,0,1-3.27.61l-3.29.49a54.23,54.23,0,0,1-6.61.56l-3.3.13h-2.5l-4.82,0-19.27-.1L678,981.87c-51.39-.39-102.78-1-154.18-1.61l-154.18-1.77-38.54-.38L311.84,978l-4.82,0h-1.81c-.2,0-.39,0-.67,0l-3.13-.16a49.92,49.92,0,0,1-6.22-.57l-3.1-.49c-1-.19-2.07-.31-3.08-.6a73.77,73.77,0,0,1-57.54-72.27l0,1.23L217.76,700.94,204.12,496.87l-13.41-204.1c-4.46-68-9-136-13.13-204.11l0-.49V88A66,66,0,0,1,194.19,45.1a64.22,64.22,0,0,1,40.25-21.28c.95-.12,1.91-.27,2.87-.36l2.88-.11,2.88-.1c.5,0,.93,0,1.35,0l1.26,0,10.16.17,20.3.38,40.6.75c54.13,1,108.27,2.08,162.41,2.92S587.42,29,641.55,29.18,749.83,29.32,804,29Z"/></svg>