<svg id="Layer_1" data-name="Layer 1" xmlns="http://www.w3.org/2000/svg" viewBox="0 0 1000 1000"><path d="M578.23,500.15a178.19,178.19,0,0,0,10.32,49.59,245.16,245.16,0,0,0,22.33,45.79,359.24,359.24,0,0,0,30,41.38c10.89,13.14,22.6,25.6,34.73,37.62,24.31,24,50.48,46.1,77.41,67.17s54.7,41.1,82.58,61c13.95,9.94,27.93,19.87,41.82,30s27.69,20.42,41.1,31.43c6.7,5.53,13.3,11.23,19.64,17.38s12.49,12.66,17.74,20.54a52,52,0,0,1,6.54,13.42,32.1,32.1,0,0,1,1.3,8.31,27,27,0,0,1-1.47,8.92,28.81,28.81,0,0,1-4.38,7.73,34.68,34.68,0,0,1-2.82,3.07c-.49.47-1,.94-1.49,1.39l-1.53,1.24a59,59,0,0,1-12.77,7.46,143,143,0,0,1-26,8.12c-8.69,1.94-17.37,3.33-26,4.5s-17.33,2.07-26,2.81-17.3,1.25-26,1.74a893.31,893.31,0,0,1-103.88-.94,1086,1086,0,0,1-204.69-34c-16.75-4.44-33.42-9.21-49.94-14.47s-33-10.77-49.22-16.84-32.43-12.4-48.38-19.28-31.76-14.14-47.37-21.83-30.94-16-46.07-24.68-30-17.88-44.5-27.64c-29-19.52-56.89-41.11-82.35-65.64s-48.69-51.83-67.42-82.6a308.62,308.62,0,0,1-24.1-48.59c-.89-2.09-1.56-4.27-2.35-6.41l-2.27-6.45c-1.39-4.35-2.67-8.74-4-13.12l-1.67-6.67-.83-3.34c-.28-1.11-.55-2.22-.76-3.35l-1.33-6.75c-.44-2.26-.91-4.5-1.2-6.79a246.87,246.87,0,0,1-2.59-55.07,259.76,259.76,0,0,1,9.46-54.2,305.53,305.53,0,0,1,19.8-50.87,369.61,369.61,0,0,1,27.54-46.53c20.46-29.53,44.41-56.16,70.26-80.35a723.3,723.3,0,0,1,82.65-65.94q21.76-14.88,44.32-28.45l11.32-6.69,11.42-6.51c3.79-2.19,7.66-4.23,11.49-6.35l5.77-3.15,5.81-3Q373.48,142,397.3,131c15.87-7.32,31.89-14.33,48.11-20.81A1128.72,1128.72,0,0,1,645.81,50.3q25.7-5.05,51.61-9t52-6.23c17.4-1.65,34.87-2.67,52.35-3.33a515.9,515.9,0,0,1,53.25.55c4.54.32,9.13.75,13.78,1.35s9.4,1.4,14.27,2.5a83.52,83.52,0,0,1,15.37,4.94A48.94,48.94,0,0,1,907,45.87a34.64,34.64,0,0,1,8.59,8.57,29.47,29.47,0,0,1,5,13.09,32.55,32.55,0,0,1-.86,12.15,45.16,45.16,0,0,1-1.55,4.88c-.61,1.42-1.21,2.93-1.88,4.19-.33.65-.66,1.32-1,2l-1,1.81c-.69,1.25-1.43,2.3-2.15,3.44a108.9,108.9,0,0,1-9.12,11.74c-3.12,3.56-6.32,6.86-9.54,10.06-6.44,6.38-13,12.27-19.69,18S860.35,147,853.63,152.42c-13.46,10.89-27,21.45-40.49,32-27,21.15-53.76,42.27-79.6,64.5s-50.69,45.53-73.44,70.8A474.86,474.86,0,0,0,628,359.26a327.42,327.42,0,0,0-26.65,43.26,224.27,224.27,0,0,0-18,47.35A171,171,0,0,0,578.23,500.15Zm-4.22.25a179.82,179.82,0,0,1,4.33-51.71,239.53,239.53,0,0,1,17.23-49,356.49,356.49,0,0,1,25.7-45.1c9.6-14.4,20-28.28,30.92-41.65,21.93-26.74,45.84-51.74,70.56-75.8s50.29-47.18,75.87-70c12.76-11.45,25.54-22.84,38-34.36C842.86,127,849,121.21,855,115.34s11.79-11.81,17.17-17.82c2.68-3,5.26-6,7.61-9.07a81.22,81.22,0,0,0,6.12-8.94c.37-.71.83-1.44,1.12-2.1l.5-1,.39-1c.31-.64.42-1.16.64-1.72a11.84,11.84,0,0,0,.27-1.27c.1-.68,0-1,0-.6a3.08,3.08,0,0,0,.28,1.28c.08.26,0,.1-.65-.26a18.4,18.4,0,0,0-2.85-1.26,52.19,52.19,0,0,0-9.25-2.3c-3.52-.59-7.25-1-11.13-1.31s-7.83-.49-11.85-.57c-16.1-.34-32.8.62-49.49,1.85s-33.44,3-50.1,5.13-33.27,4.66-49.83,7.5-33,6.16-49.48,9.73A1209.41,1209.41,0,0,0,461.88,151q-23.38,9.39-46.31,19.83c-7.66,3.43-15.22,7.07-22.81,10.65l-11.29,5.54c-3.77,1.83-7.47,3.79-11.22,5.68a917.13,917.13,0,0,0-86.76,50.39,684,684,0,0,0-79.23,60.52c-24.66,22.08-47.35,46.22-66.49,72.66s-34.62,55.23-43.94,85.8a224.67,224.67,0,0,0-8.91,46.74,212,212,0,0,0,1.48,47.42c4.46,31.49,16.37,62,32.86,90s37.64,53.73,61.22,77,49.81,44.32,77.37,63.41q20.68,14.32,42.44,27.18t44.2,24.48c60,30.91,123.54,55.27,188.72,73.75A1064.74,1064.74,0,0,0,733,948.76c16.89,1.41,33.81,2.5,50.75,3s33.89.66,50.82.2c4.24-.1,8.47-.31,12.7-.45s8.46-.36,12.68-.58c8.44-.49,16.85-1.13,25.19-2s16.64-2,24.73-3.52A126.58,126.58,0,0,0,933.05,939a43.32,43.32,0,0,0,9.57-5.12l1-.74.88-.78a21.79,21.79,0,0,0,1.6-1.58,14.13,14.13,0,0,0,2.08-3.32,12,12,0,0,0,.75-3.67,17.86,17.86,0,0,0-.54-4.37,38.21,38.21,0,0,0-4.41-9.73c-4-6.56-9.49-12.81-15.21-18.79s-12-11.71-18.28-17.31c-12.7-11.18-26-21.85-39.47-32.39s-27.08-20.91-40.69-31.33c-27.24-20.8-54.49-41.7-81-63.51s-52.39-44.48-76.58-68.92-46.69-50.7-64.85-80A254.32,254.32,0,0,1,585,551,182.39,182.39,0,0,1,574,500.4Z"/></svg>