<svg id="Layer_1" data-name="Layer 1" xmlns="http://www.w3.org/2000/svg" viewBox="0 0 1000 1000"><polygon points="748.77 150.25 782.53 829.69 840.54 829.47 840.72 875.98 869.14 875.87 868.96 829.36 926.96 829.13 955.48 149.46 866.34 149.8 866.16 103.29 837.74 103.4 837.92 149.91 748.77 150.25"/><polygon points="512.56 830.73 601.7 830.39 601.88 876.9 630.3 876.79 630.12 830.28 719.26 829.93 685.5 150.5 627.5 150.72 627.32 104.21 598.9 104.32 599.08 150.83 541.07 151.06 512.56 830.73"/><polygon points="277.89 152.07 311.65 831.51 369.66 831.28 369.84 877.79 398.26 877.68 398.08 831.17 456.08 830.95 484.6 151.27 395.46 151.62 395.28 105.11 366.86 105.22 367.04 151.73 277.89 152.07"/><polygon points="41.68 832.55 130.82 832.2 131 878.71 159.42 878.6 159.24 832.09 248.38 831.75 214.62 152.31 156.62 152.54 156.44 106.03 128.02 106.14 128.2 152.65 70.19 152.87 41.68 832.55"/></svg>