<svg id="Layer_1" data-name="Layer 1" xmlns="http://www.w3.org/2000/svg" viewBox="0 0 1000 1000"><path d="M764.76,347.07c2,28.79,4,57.52,6.08,86l6.23,85.18,6.15,84.37q3,42,5.81,83.79l-8.37-8,45.56-.79,45.56-.71,91.12-1.3L951.73,686.4q1.18-42.63,2.09-85.26l.85-42.63.42-21.32.54-21.32q1.08-42.62,3.35-85.2.54-10.65,1.18-21.29l1.3-21.28,1.36-21.28,1.47-21.27L977.2,359c-17-.51-34.05-1.17-51.22-2s-34.51-1.82-52.07-2.88Zm-2.06-2,51.15-3.6c17.42-1.19,35.18-2.35,53.17-3.45s36.26-2.07,54.67-2.89,36.94-1.49,55.51-2l13.12-.36-.21,13.82L989.79,368l-.43,21.32-.48,21.32c-.18,7.1-.37,14.21-.61,21.31q-1.32,42.62-3.8,85.18l-1.25,21.29-1.36,21.28-2.73,42.55q-2.75,42.57-5.07,85.14l-.6,10.85L962.9,698l-91.12-1.3-45.56-.7-45.56-.8-8.11-.14-.25-7.82q-1.39-43.38-2.66-86.59l-2.32-86-2.23-85.22Z"/><path d="M537.57,301.48l-1.79,86.16L534.19,473l-1.61,84.59-1.89,84-8.41-8.77,52.35-.92,52.34-.78,104.69-1.53L720,641.81l-1.41-21.28-1.5-21.28-3-42.55c-1-14.19-2.1-28.37-3-42.56l-1.4-21.28-1.25-21.29q-2.37-42.58-3.6-85.22T702.89,301l11.84,11.27-21.29-.89c-7.11-.32-14.25-.71-21.41-1.08-14.33-.77-28.79-1.67-43.46-2.63Zm-2-2.06,42.77-3.17c14.54-1.06,29.36-2.08,44.37-3.06s30.26-1.86,45.62-2.63c7.68-.37,15.39-.76,23.13-1.08l23.25-.89,10.86-.41,1,11.68q3.57,42.52,6.53,85.08T738,470.11l.87,21.3.72,21.32c.5,14.21.81,28.43,1.22,42.64L742,598l.61,21.33.72,21.31.41,12.41-12.05-.18L627,651.34l-52.34-.77-52.35-.92-8.93-.16.52-8.61,5.27-86.39,5.53-85.8,5.56-85Z"/><path d="M277.68,348.57c1.95,28.79,4,57.52,6.08,86L290,519.79l6.15,84.37q3,42,5.81,83.8l-8.37-8,45.61-.8,45.61-.7L476,677.2l-11.17,10.7q1.19-42.61,2.08-85.25l.85-42.64.43-21.32.54-21.31q1.06-42.63,3.34-85.21.54-10.65,1.18-21.28l1.31-21.29,1.36-21.28,1.46-21.27,12.91,13.47c-17-.52-34.07-1.18-51.26-2s-34.54-1.82-52.12-2.89Zm-2.06-2,51.2-3.6c17.43-1.19,35.2-2.35,53.21-3.45s36.3-2.07,54.72-2.89,37-1.49,55.55-2l13.13-.36-.21,13.82-.33,21.33-.42,21.31L502,412.09q-.25,10.65-.6,21.31Q500,476,497.57,518.59l-1.24,21.28L495,561.15l-2.72,42.56q-2.75,42.56-5.07,85.13l-.61,10.86L476,699.55l-91.21-1.3-45.61-.71-45.61-.8-8.11-.14-.25-7.81q-1.39-43.39-2.65-86.6l-2.32-86L278,431Z"/><path d="M50.67,301.48l-1.78,86.16L47.3,473l-1.62,84.59-1.88,84-8.41-8.77,52.3-.92,52.29-.78,104.6-1.53L233,641.81l-1.41-21.28L230,599.25l-3-42.55c-1-14.19-2.1-28.37-3-42.56l-1.4-21.28-1.25-21.29Q219,429,217.74,386.35T215.81,301l11.84,11.26-21.26-.89c-7.11-.31-14.24-.7-21.39-1.07-14.32-.77-28.76-1.67-43.42-2.63Zm-2-2.06,42.72-3.17c14.52-1.06,29.33-2.08,44.33-3.06s30.22-1.86,45.57-2.63c7.67-.37,15.37-.76,23.1-1.07l23.23-.89,10.85-.42,1,11.68q3.57,42.52,6.53,85.08t4.87,85.17l.87,21.3.72,21.32c.5,14.21.81,28.43,1.22,42.64L254.89,598l.61,21.33.72,21.31.41,12.41-12-.18L140,651.35l-52.29-.78-52.3-.92-8.94-.16.53-8.61,5.26-86.39,5.54-85.8,5.55-85Z"/></svg>