<svg id="Layer_1" data-name="Layer 1" xmlns="http://www.w3.org/2000/svg" viewBox="0 0 1000 1000"><path d="M791.75,18.56H211.83a58.92,58.92,0,0,0-58.91,58.91L216.21,921.9a58.91,58.91,0,0,0,58.91,58.91H728.46a58.92,58.92,0,0,0,58.91-58.91L850.65,77.47A58.91,58.91,0,0,0,791.75,18.56ZM613.08,432.67a179.9,179.9,0,0,0-56.41,56.42c-26.19,41.6-45.33,88.16-54.88,128.27-9.64-40.5-29.08-87.58-55.66-129.49a176.46,176.46,0,0,0-54.46-54.46c-41.91-26.58-89-46-129.49-55.66,40.5-9.63,87.57-29.06,129.47-55.63a176.49,176.49,0,0,0,54.47-54.46c26.59-41.92,46-89,55.67-129.51,9.64,40.5,29.07,87.58,55.65,129.49a176.31,176.31,0,0,0,54.47,54.47c41.9,26.57,89,46,129.48,55.64C701.27,387.3,654.69,406.47,613.08,432.67Z"/></svg>