<svg id="Layer_1" data-name="Layer 1" xmlns="http://www.w3.org/2000/svg" viewBox="0 0 1000 1000"><path d="M871.08,488.74c-207.22,10.05-375.36-191.3-383.14-458.8,7.78,267.5-148.18,484.56-355.4,494.6,207.22-10,375.35,191.3,383.13,458.8C507.89,715.84,663.86,498.79,871.08,488.74ZM631.17,510.05a9,9,0,0,1-15.56-.15l-103.38.6,74.25,73.39a9,9,0,1,1-6.71,6.44L505.7,517.12l.59,101.18h0a9,9,0,1,1-12.36,3.13,8.88,8.88,0,0,1,3.05-3.07l-.59-101.2-71.57,72.42a8.92,8.92,0,0,1-.93,7,9,9,0,1,1-5.85-13.4l71.73-72.58-101.55.59c-.09.19-.19.37-.29.54a9,9,0,1,1-3.13-12.36,9.08,9.08,0,0,1,2.74,2.53l102.18-.6-73.41-72.55a9,9,0,0,1-9.09-13.51,9,9,0,0,1,16.28,7.54l72.76,71.91L495.68,395a9,9,0,1,1,12.37-3.13,8.79,8.79,0,0,1-3.07,3.08l.58,99.74,72-72.87a9,9,0,1,1,6.91,6.24l-72.31,73.17,103.63-.61a9,9,0,0,1,15.36,9.45Z"/></svg>