<svg id="Layer_1" data-name="Layer 1" xmlns="http://www.w3.org/2000/svg" viewBox="0 0 1000 1000"><defs><style>.cls-1{fill:none;stroke:#000;stroke-miterlimit:10;stroke-width:11.24px;}</style></defs><circle cx="219.33" cy="339.75" r="44.65"/><circle cx="615.08" cy="736.41" r="44.65"/><circle cx="795.51" cy="245.38" r="44.65"/><ellipse class="cls-1" cx="497.71" cy="503.89" rx="463.91" ry="105.18" transform="translate(-209.79 536.6) rotate(-48)"/><ellipse class="cls-1" cx="497.71" cy="503.89" rx="105.18" ry="463.91" transform="translate(-210.5 511.88) rotate(-46)"/><path d="M964.5,478.55a18.27,18.27,0,0,0-.85-2.09c-.32-.67-.57-1.39-.95-2a37.9,37.9,0,0,0-2.25-3.77A56.49,56.49,0,0,0,949,458.45a101.62,101.62,0,0,0-13.35-9q-6.92-4-14.1-7.19c-4.78-2.14-9.61-4.17-14.51-6-2.43-.94-4.9-1.75-7.35-2.63s-4.93-1.66-7.41-2.43c-9.9-3.13-19.89-5.84-29.94-8.27-20.09-4.84-40.4-8.51-60.76-11.56s-40.81-5.44-61.28-7.33-41-3.37-61.5-4.48-41-1.85-61.57-2.31q-7.58-.18-15.14-.29-.32-8.16-.68-16.31c-.93-20.53-2.09-41.07-3.71-61.58s-3.46-41-5.89-61.49c-4.86-40.93-11.42-81.78-22.2-122-2.75-10-5.75-20-9.25-29.95-.85-2.47-1.79-4.94-2.69-7.41s-1.88-4.92-2.91-7.36c-2-4.91-4.18-9.75-6.53-14.56s-5-9.55-7.84-14.21a102.11,102.11,0,0,0-9.87-13.56,60.52,60.52,0,0,0-13.57-11.83,43.28,43.28,0,0,0-4.25-2.34c-.72-.38-1.54-.65-2.3-1a23.16,23.16,0,0,0-2.38-.86,35.93,35.93,0,0,0-10.29-1.69,36.52,36.52,0,0,0-10.31,1.59,23.48,23.48,0,0,0-2.4.85c-.77.32-1.59.58-2.31,1a42.79,42.79,0,0,0-4.3,2.3,61.47,61.47,0,0,0-13.76,11.73,105.78,105.78,0,0,0-10.1,13.49q-4.44,7-8.1,14.15c-2.43,4.79-4.73,9.63-6.77,14.52-1.08,2.43-2,4.9-3,7.35s-1.92,4.92-2.82,7.39c-3.64,9.89-6.86,19.86-9.79,29.89-11.56,40.14-18.87,81-24.48,122s-9,82.11-11.32,123.29q-.63,11.42-1.1,22.85-8.08.58-16.18,1.22c-20.5,1.61-41,3.45-61.44,5.74s-40.89,4.82-61.28,7.92c-40.76,6.2-81.4,14.1-121.29,26.23-10,3.08-19.87,6.42-29.66,10.26-2.45.94-4.89,2-7.33,3s-4.87,2-7.28,3.16c-4.85,2.13-9.64,4.52-14.38,7s-9.42,5.31-14,8.36A103.78,103.78,0,0,0,41,486.44a61.82,61.82,0,0,0-11.5,14.15A42.41,42.41,0,0,0,27.23,505a25,25,0,0,0-.92,2.38,23.61,23.61,0,0,0-.81,2.46,33.89,33.89,0,0,0,.64,21.07,21.33,21.33,0,0,0,.95,2.42c.35.78.65,1.61,1.06,2.33a40.81,40.81,0,0,0,2.5,4.29A61.94,61.94,0,0,0,43,553.5a107,107,0,0,0,13.93,9.7q7.16,4.23,14.5,7.64c4.89,2.27,9.82,4.41,14.8,6.29,2.47,1,5,1.86,7.47,2.78s5,1.76,7.5,2.57c10,3.31,20.13,6.18,30.27,8.77,40.58,10.16,81.7,16,122.85,20.19s82.43,6.12,123.68,6.92c3.68.08,7.36.12,11,.17.18,3,.36,5.91.56,8.86,2.78,41.11,6.87,82.15,12.86,123,3,20.4,6.52,40.74,10.68,61s9,40.36,14.88,60.23,12.84,39.53,22.4,58.28q3.58,7,7.89,13.77A103.46,103.46,0,0,0,468,956.5a56.84,56.84,0,0,0,12.74,10.85,39.31,39.31,0,0,0,3.85,2.06c.65.34,1.37.56,2.06.84a18.64,18.64,0,0,0,2.1.74,28.63,28.63,0,0,0,17.87-.1,19.91,19.91,0,0,0,2.09-.76c.68-.3,1.4-.52,2-.87a36.76,36.76,0,0,0,3.81-2.1,56.4,56.4,0,0,0,12.53-10.95,101.25,101.25,0,0,0,9.46-13q4.2-6.75,7.67-13.8c2.31-4.7,4.5-9.44,6.45-14.27,1-2.39,1.93-4.83,2.9-7.24s1.83-4.86,2.69-7.31c3.47-9.77,6.54-19.66,9.32-29.6,5.56-19.9,9.95-40,13.74-60.29s6.9-40.57,9.53-61,4.84-40.83,6.67-61.29,3.31-41,4.51-61.45q.51-8.25.92-16.51,12-1.08,24-2.31c41-4.22,81.88-9.77,122.47-17.2,20.29-3.73,40.5-8,60.59-12.84s40-10.4,59.7-17,39.09-14.25,57.53-24.49q6.91-3.84,13.51-8.4a102.53,102.53,0,0,0,12.61-10.18,57.26,57.26,0,0,0,10.46-13.22,38.29,38.29,0,0,0,1.95-4c.32-.66.52-1.41.78-2.11a19.17,19.17,0,0,0,.67-2.15,29.17,29.17,0,0,0-.74-18.1ZM404.36,381.31c2.86-40.77,7-81.43,13.07-121.76q4.44-30.24,10.49-60.14c4-19.92,8.72-39.66,14.34-59s12.25-38.41,21-55.93c2.18-4.38,4.55-8.6,7.07-12.64a89,89,0,0,1,8.21-11.22A43.06,43.06,0,0,1,488,52.28a22.45,22.45,0,0,1,2.47-1.37,11.91,11.91,0,0,1,1.23-.52,10,10,0,0,1,1.22-.45,17.94,17.94,0,0,1,4.83-.83,18.35,18.35,0,0,1,4.86.73,8.34,8.34,0,0,1,1.24.44,8.81,8.81,0,0,1,1.25.5,23.43,23.43,0,0,1,2.51,1.33,43,43,0,0,1,9.64,8.22c6.06,6.75,11.22,15.06,15.77,23.72,9.06,17.46,16,36.52,22,55.8s11.08,39.06,15.49,59,8.29,40,11.62,60.16c7.56,45.63,12.78,91.71,16,138q-52-.72-104.07.86-45.51,1.38-91,4.29Q403.64,391.69,404.36,381.31ZM602,503.89c.06,20.52-.15,41-.78,61.55q-.45,15.13-1.19,30.27-49.37,3.9-98.9,5.34-30.66.86-61.33.84-19,0-38.08-.49-2.11-48.72-1.86-97.51.3-49,3-97.95,45.53-4.35,91.26-6.17,52-2,104.11-1.06Q601.76,451.21,602,503.89ZM378.49,600.74c-40.83-1.46-81.6-4.25-122.08-8.89Q226,588.46,196,583.44c-20-3.32-39.9-7.33-59.42-12.27s-38.74-10.88-56.49-18.95q-6.64-3-12.8-6.57a86.91,86.91,0,0,1-11.4-7.74,42.43,42.43,0,0,1-8.48-9,22.23,22.23,0,0,1-1.4-2.34,10,10,0,0,1-.54-1.16,7.12,7.12,0,0,1-.48-1.16,14.68,14.68,0,0,1-.42-9.2,7.46,7.46,0,0,1,.37-1.2,10.48,10.48,0,0,1,.43-1.22,25.35,25.35,0,0,1,1.2-2.47,42.48,42.48,0,0,1,7.73-9.74c6.45-6.22,14.52-11.65,23-16.49,17-9.65,35.81-17.23,54.83-24s38.59-12.5,58.31-17.63,39.63-9.76,59.66-13.84c45.18-9.21,90.89-16.11,136.85-21q-.69,17.28-1.11,34.55-.76,30.9-.58,61.8.27,48.6,2.8,97.15C384.85,601,381.67,600.86,378.49,600.74Zm219.76,26.18c-.64,10.24-1.47,20.46-2.35,30.68S594,678,593,688.23s-2.32,20.38-3.62,30.55-2.74,20.32-4.29,30.45c-3.12,20.26-6.74,40.43-11,60.45s-9.15,39.9-15.07,59.42-12.84,38.75-22,56.66c-2.3,4.47-4.81,8.8-7.49,13a94.16,94.16,0,0,1-8.85,11.74,47.51,47.51,0,0,1-10.69,9.09,28,28,0,0,1-2.95,1.58,15.06,15.06,0,0,1-1.52.61,11.1,11.1,0,0,1-1.53.53,20,20,0,0,1-12.42-.1,10.56,10.56,0,0,1-1.51-.56,14,14,0,0,1-1.5-.63,29.67,29.67,0,0,1-2.91-1.61,47.38,47.38,0,0,1-10.47-9.2,91.42,91.42,0,0,1-8.63-11.8q-3.92-6.3-7.26-13c-8.88-18-15.4-37.28-21-56.79s-10.05-39.45-13.92-59.48-7.1-40.2-9.83-60.45C409,708.16,405.31,667.39,403,626.56c-.15-2.63-.28-5.27-.42-7.9q18.66.12,37.32-.09,30.92-.33,61.8-1.61,48.85-2,97.57-6.29Q598.76,618.8,598.25,626.92ZM955.55,494a10.56,10.56,0,0,1-.5,1.5,13.44,13.44,0,0,1-.57,1.49A27.84,27.84,0,0,1,953,499.9a47.3,47.3,0,0,1-8.75,10.68,93.1,93.1,0,0,1-11.45,9q-6.13,4.13-12.73,7.68c-17.61,9.48-36.67,16.65-56,22.91s-39.06,11.39-58.93,16-39.91,8.46-60,11.89c-40.26,6.91-80.86,12-121.58,15.72-7.3.67-14.6,1.28-21.91,1.87q.65-15,1.09-30.1.94-30.78,1.07-61.59.24-52.54-1.67-105.11c46,1,92,4,137.7,9.44,20.35,2.43,40.64,5.36,60.79,8.93s40.17,7.8,59.87,13,39.13,11.52,57.31,20.08q6.81,3.21,13.2,7a93.76,93.76,0,0,1,12,8.41A47.18,47.18,0,0,1,952.36,476a27.43,27.43,0,0,1,1.65,2.86,13.69,13.69,0,0,1,.65,1.47,12.93,12.93,0,0,1,.58,1.48,19.52,19.52,0,0,1,.31,12.18Z"/></svg>