<svg id="Layer_1" data-name="Layer 1" xmlns="http://www.w3.org/2000/svg" viewBox="0 0 1000 1000"><path d="M873.37,461.43a35.86,35.86,0,0,0-35.8,35.91c0,.74,0,1.47.08,2.19-19.13-1.56-38.26-2.77-57.4-3.85q-45.42-2.46-90.85-3.55t-90.86-.2l-31.57.7,4.94-1.53,81.73-25.61,81.65-25.9,40.82-12.95,9.61-3.09a35.85,35.85,0,1,0-1-4l-9.88,2.56L733.39,433l-82.83,21.82L567.81,477l-35.31,9.58,27.43-83.86L595,294q30.84-96.58,61.33-193.29A35.72,35.72,0,1,0,651.7,99q-36.51,94.7-72.24,189.66L539.31,395.49l-29.89,80.64-42.84-72.35-58.44-98-58.7-97.9-29.35-49-16.28-27a35.85,35.85,0,1,0-2.95,1.55L316,161.22l27.51,50,55,100,55.27,99.87,46.1,82.72-83.12,1.09-90.86,1.52-90.87,1.81-45.44.92-8.26.19a35.86,35.86,0,1,0,.58,6.38c0-.71,0-1.42-.07-2.12l7.74.24L235,505.07l90.86,2.43,90.85,2.13,27.87.55q-21.15,5.55-42.3,11.05Q360.91,532.17,320.05,545t-81.34,27c-15.29,5.38-30.56,10.88-45.75,16.62a35.86,35.86,0,1,0,3.16,8.71c15.7-3.24,31.34-6.73,46.95-10.31q41.76-9.72,83.14-20.75t82.21-24c27.21-8.67,54.38-17.47,81.66-25.88l4.94-1.52c-11.77,31.53-23.91,62.94-35.92,94.39Q438.82,662.62,421.36,717t-33,109.34c-6.92,24.66-13.6,49.41-19.7,74.36a35.81,35.81,0,1,0,10.63,4.14c10.81-23.45,21-47.11,31-70.85q22-52.76,42.13-106.18T489.8,620c9.69-30.65,19.28-61.33,29.16-91.91,15.25,27.53,30.32,55.16,45.46,82.75q27.51,50,56.76,99t59.67,97.34c13.65,21.58,27.42,43.08,41.55,64.38a35.84,35.84,0,1,0,6.83-3.6c-11.32-23-23-45.83-34.82-68.57q-26.43-50.62-54-100.57t-57-98.9c-17.62-29.31-35.31-58.57-52.77-88,22.61.56,45.21,1.26,67.82,1.9q45.42,1.18,90.86.42t90.87-2.94c19.64-1,39.28-2.1,58.92-3.59a35.86,35.86,0,1,0,34.25-46.3Z"/></svg>