<svg id="Layer_1" data-name="Layer 1" xmlns="http://www.w3.org/2000/svg" viewBox="0 0 1000 1000"><path d="M798,820.3q-84-.63-168-.07t-168,2.39l-168,3.51-84,1.48-21,.32-5.25.08-2.62,0h-2.85c-1.91,0-3.82-.1-5.73-.18s-3.82-.25-5.72-.49a105.9,105.9,0,0,1-43.8-14.62,96.38,96.38,0,0,1-9.7-6.88,85.6,85.6,0,0,1-8.77-8.29,72,72,0,0,1-13.34-20.72,66.37,66.37,0,0,1-3.66-12.11l-.3-1.56-.14-.77-.1-.64-.43-2.59L85.8,754l-3.39-20.73L68.82,650.39,41.64,484.61,28.21,401.69,21.5,360.2a71.28,71.28,0,0,1-.74-13.55,69,69,0,0,1,2-13.44,72.23,72.23,0,0,1,11.33-24A87.18,87.18,0,0,1,52,291,101.52,101.52,0,0,1,73.41,278.5a115.79,115.79,0,0,1,11.49-4.24,118.32,118.32,0,0,1,11.81-2.92c4-.81,8-1.32,12-1.73,2-.18,4.06-.3,6-.42l5.24-.25,83.9-4,83.9-4.12,83.89-4.32,167.77-8.82q83.88-4.28,167.81-7.72,42-1.68,83.93-3.1l42-1.37,21-.63,10.49-.32,5.31-.15c2.09,0,4.18-.07,6.27,0a126.55,126.55,0,0,1,25,3.05,113.62,113.62,0,0,1,24.08,8.29,102.23,102.23,0,0,1,22,14,88.78,88.78,0,0,1,18,20.16,82.4,82.4,0,0,1,6.47,12.45A71.33,71.33,0,0,1,975.66,306a68.07,68.07,0,0,1,1.25,14.38c0,2.41-.27,4.79-.47,7.17l-.54,3.52-.29,1.74-.27,1.29-8.5,41.14q-8.58,41.13-17.51,82.2l-17.94,82.12L913.5,621.68q-8.84,41.09-17.37,82.22c-2.81,13.72-5.67,27.43-8.41,41.16l-2.07,10.3-1,5.15c-.17.87-.32,1.69-.53,2.6l-.62,2.74a61.17,61.17,0,0,1-9.49,20,73.4,73.4,0,0,1-15.34,15.54,78.28,78.28,0,0,1-9.07,6,90.71,90.71,0,0,1-9.68,4.8A105.56,105.56,0,0,1,798,820.3Zm0-4.23a98.88,98.88,0,0,0,39.82-8.59,80.45,80.45,0,0,0,9-4.76,75.24,75.24,0,0,0,8.29-5.83A65.26,65.26,0,0,0,868.7,782.2a53,53,0,0,0,7.71-18l.45-2.4c.14-.8.27-1.71.41-2.56l.8-5.19,1.59-10.38c2.13-13.84,4.15-27.7,6.21-41.55q6.15-41.57,11.89-83.2l11.37-83.28,11.33-83.3q5.73-41.62,11.75-83.22l6.13-41.56.19-1.3.08-.86.17-1.68c0-1.11.11-2.21,0-3.31a30.12,30.12,0,0,0-.91-6.47,37.75,37.75,0,0,0-5.73-12.26c-5.54-7.75-14.14-14.34-24.09-18.6a77.28,77.28,0,0,0-7.67-2.85c-2.65-.77-5.31-1.49-8-2a85.22,85.22,0,0,0-16.69-1.6c-1.41,0-2.82.08-4.23.1l-5.18.24-10.49.52-21,1-42,1.95q-42,1.88-83.92,3.51Q625,287.2,541,289.46l-167.94,4.42-84,2.31-84,2.5-83.95,2.6-5.25.16c-1.57.08-3,.14-4.5.24-3,.26-5.92.57-8.82,1.12s-5.77,1.21-8.61,2a80.44,80.44,0,0,0-8.25,2.88A70,70,0,0,0,70.82,316a55.89,55.89,0,0,0-11.63,11.44A41.83,41.83,0,0,0,52.38,341a40,40,0,0,0-1.25,7.26,40.68,40.68,0,0,0,.27,7.39l6,41.53,12,83.13L93.15,646.66,105,729.82l3,20.79.74,5.19.37,2.6.09.65.09.53.18,1a43.54,43.54,0,0,0,2.23,8c4.09,10.46,12.36,19.67,22.66,26.25a85.33,85.33,0,0,0,35,12.57c1.57.24,3.15.35,4.73.53s3.16.26,4.75.28l2.41.08,2.62,0,5.25.08,21,.31,84,1.49,168,3.51q84,1.66,168,2.39T798,816.07Z"/></svg>